<svg xmlns="http://www.w3.org/2000/svg" viewBox="0 0 1200 300" width="1200" height="300" role="img" aria-labelledby="t-deep" preserveAspectRatio="xMidYMid slice"><title id="t-deep">An abstract landscape in soft blues and warm sand: layered ridgelines under an open sky, with a low sun.</title><defs><linearGradient id="sky-deep" x1="0" y1="0" x2="0.3" y2="1"><stop offset="0" stop-color="#e6eff5"/><stop offset="1" stop-color="#f2f6f8"/></linearGradient><linearGradient id="far-deep" x1="0" y1="0" x2="0" y2="1"><stop offset="0" stop-color="#9cbcd6" stop-opacity=".55"/><stop offset="1" stop-color="#9cbcd6" stop-opacity=".25"/></linearGradient><linearGradient id="near-deep" x1="0" y1="0" x2="0" y2="1"><stop offset="0" stop-color="#7ba7cb" stop-opacity=".85"/><stop offset="1" stop-color="#7ba7cb" stop-opacity=".6"/></linearGradient></defs><rect width="1200" height="300" fill="url(#sky-deep)"/><circle cx="473" cy="126" r="30" fill="#c9a98c" opacity=".38"/><path d="M0 300 L0 201.8 Q85.7 201.8 171.4 232.9 Q257.1 232.9 342.9 216.0 Q428.6 216.0 514.3 219.1 Q600.0 219.1 685.7 227.5 Q771.4 227.5 857.1 224.1 Q942.9 224.1 1028.6 163.7 Q1114.3 163.7 1200.0 187.4 L1200 300 Z" fill="url(#far-deep)"/><path d="M0 300 L0 268.7 Q85.7 268.7 171.4 235.3 Q257.1 235.3 342.9 220.0 Q428.6 220.0 514.3 264.1 Q600.0 264.1 685.7 263.3 Q771.4 263.3 857.1 257.9 Q942.9 257.9 1028.6 259.0 Q1114.3 259.0 1200.0 269.7 L1200 300 Z" fill="url(#near-deep)"/></svg>