<svg xmlns="http://www.w3.org/2000/svg" viewBox="0 0 1200 300" width="1200" height="300" role="img" aria-labelledby="t-sand" preserveAspectRatio="xMidYMid slice"><title id="t-sand">An abstract landscape in soft blues and warm sand: layered ridgelines under an open sky, with a low sun.</title><defs><linearGradient id="sky-sand" x1="0" y1="0" x2="0.3" y2="1"><stop offset="0" stop-color="#faf7f1"/><stop offset="1" stop-color="#f4ecdf"/></linearGradient><linearGradient id="far-sand" x1="0" y1="0" x2="0" y2="1"><stop offset="0" stop-color="#dcc9b6" stop-opacity=".55"/><stop offset="1" stop-color="#dcc9b6" stop-opacity=".25"/></linearGradient><linearGradient id="near-sand" x1="0" y1="0" x2="0" y2="1"><stop offset="0" stop-color="#c2a88d" stop-opacity=".85"/><stop offset="1" stop-color="#c2a88d" stop-opacity=".6"/></linearGradient></defs><rect width="1200" height="300" fill="url(#sky-sand)"/><circle cx="420" cy="126" r="30" fill="#a6c8e0" opacity=".38"/><path d="M0 300 L0 233.9 Q85.7 233.9 171.4 221.5 Q257.1 221.5 342.9 181.1 Q428.6 181.1 514.3 206.4 Q600.0 206.4 685.7 231.1 Q771.4 231.1 857.1 200.2 Q942.9 200.2 1028.6 216.5 Q1114.3 216.5 1200.0 231.2 L1200 300 Z" fill="url(#far-sand)"/><path d="M0 300 L0 236.1 Q85.7 236.1 171.4 233.2 Q257.1 233.2 342.9 265.3 Q428.6 265.3 514.3 268.9 Q600.0 268.9 685.7 246.3 Q771.4 246.3 857.1 228.6 Q942.9 228.6 1028.6 265.3 Q1114.3 265.3 1200.0 257.5 L1200 300 Z" fill="url(#near-sand)"/></svg>